<svg id="visual" viewBox="0 0 1000 100" width="1000" height="100" xmlns="http://www.w3.org/2000/svg" xmlns:xlink="http://www.w3.org/1999/xlink" version="1.1"><path d="M0 78L5.5 72.5C11 67 22 56 33.2 52.3C44.3 48.7 55.7 52.3 66.8 52.3C78 52.3 89 48.7 100 49.2C111 49.7 122 54.3 133.2 56.5C144.3 58.7 155.7 58.3 166.8 59.2C178 60 189 62 200 60.2C211 58.3 222 52.7 233.2 53.2C244.3 53.7 255.7 60.3 266.8 60.8C278 61.3 289 55.7 300 54.3C311 53 322 56 333.2 54.5C344.3 53 355.7 47 366.8 49C378 51 389 61 400 60.8C411 60.7 422 50.3 433.2 50C444.3 49.7 455.7 59.3 466.8 63.8C478 68.3 489 67.7 500 67.2C511 66.7 522 66.3 533.2 64.5C544.3 62.7 555.7 59.3 566.8 60.3C578 61.3 589 66.7 600 68.8C611 71 622 70 633.2 68C644.3 66 655.7 63 666.8 61.7C678 60.3 689 60.7 700 62.2C711 63.7 722 66.3 733.2 69C744.3 71.7 755.7 74.3 766.8 70.5C778 66.7 789 56.3 800 55.7C811 55 822 64 833.2 63.8C844.3 63.7 855.7 54.3 866.8 55.3C878 56.3 889 67.7 900 69.5C911 71.3 922 63.7 933.2 60.7C944.3 57.7 955.7 59.3 966.8 60.7C978 62 989 63 994.5 63.5L1000 64L1000 101L994.5 101C989 101 978 101 966.8 101C955.7 101 944.3 101 933.2 101C922 101 911 101 900 101C889 101 878 101 866.8 101C855.7 101 844.3 101 833.2 101C822 101 811 101 800 101C789 101 778 101 766.8 101C755.7 101 744.3 101 733.2 101C722 101 711 101 700 101C689 101 678 101 666.8 101C655.7 101 644.3 101 633.2 101C622 101 611 101 600 101C589 101 578 101 566.8 101C555.7 101 544.3 101 533.2 101C522 101 511 101 500 101C489 101 478 101 466.8 101C455.7 101 444.3 101 433.2 101C422 101 411 101 400 101C389 101 378 101 366.8 101C355.7 101 344.3 101 333.2 101C322 101 311 101 300 101C289 101 278 101 266.8 101C255.7 101 244.3 101 233.2 101C222 101 211 101 200 101C189 101 178 101 166.8 101C155.7 101 144.3 101 133.2 101C122 101 111 101 100 101C89 101 78 101 66.8 101C55.7 101 44.3 101 33.2 101C22 101 11 101 5.5 101L0 101Z" fill="#0066FF" stroke-linecap="round" stroke-linejoin="miter"></path></svg>