<svg id="visual" viewBox="0 0 1920 1080" width="1920" height="1080" xmlns="http://www.w3.org/2000/svg"
    xmlns:xlink="http://www.w3.org/1999/xlink" version="1.1">
    <rect x="0" y="-20px" width="1920" height="1080" fill="#131313"></rect>
    <path
        d="M0 578L45.7 595.5C91.3 613 182.7 648 274.2 661.7C365.7 675.3 457.3 667.7 548.8 658.5C640.3 649.3 731.7 638.7 823 631.7C914.3 624.7 1005.7 621.3 1097 607.2C1188.3 593 1279.7 568 1371.2 585.2C1462.7 602.3 1554.3 661.7 1645.8 666.8C1737.3 672 1828.7 623 1874.3 598.5L1920 574L1920 1081L1874.3 1081C1828.7 1081 1737.3 1081 1645.8 1081C1554.3 1081 1462.7 1081 1371.2 1081C1279.7 1081 1188.3 1081 1097 1081C1005.7 1081 914.3 1081 823 1081C731.7 1081 640.3 1081 548.8 1081C457.3 1081 365.7 1081 274.2 1081C182.7 1081 91.3 1081 45.7 1081L0 1081Z"
        fill="#03273c"></path>
    <path
        d="M0 691L45.7 703C91.3 715 182.7 739 274.2 744.5C365.7 750 457.3 737 548.8 742.8C640.3 748.7 731.7 773.3 823 787.3C914.3 801.3 1005.7 804.7 1097 802.2C1188.3 799.7 1279.7 791.3 1371.2 784.8C1462.7 778.3 1554.3 773.7 1645.8 749.2C1737.3 724.7 1828.7 680.3 1874.3 658.2L1920 636L1920 1081L1874.3 1081C1828.7 1081 1737.3 1081 1645.8 1081C1554.3 1081 1462.7 1081 1371.2 1081C1279.7 1081 1188.3 1081 1097 1081C1005.7 1081 914.3 1081 823 1081C731.7 1081 640.3 1081 548.8 1081C457.3 1081 365.7 1081 274.2 1081C182.7 1081 91.3 1081 45.7 1081L0 1081Z"
        fill="#003554"></path>
    <path
        d="M0 914L45.7 901.2C91.3 888.3 182.7 862.7 274.2 845.8C365.7 829 457.3 821 548.8 818.3C640.3 815.7 731.7 818.3 823 826.3C914.3 834.3 1005.7 847.7 1097 847.7C1188.3 847.7 1279.7 834.3 1371.2 824.5C1462.7 814.7 1554.3 808.3 1645.8 810C1737.3 811.7 1828.7 821.3 1874.3 826.2L1920 831L1920 1081L1874.3 1081C1828.7 1081 1737.3 1081 1645.8 1081C1554.3 1081 1462.7 1081 1371.2 1081C1279.7 1081 1188.3 1081 1097 1081C1005.7 1081 914.3 1081 823 1081C731.7 1081 640.3 1081 548.8 1081C457.3 1081 365.7 1081 274.2 1081C182.7 1081 91.3 1081 45.7 1081L0 1081Z"
        fill="#004d74"></path>
    <path
        d="M0 829L45.7 838.3C91.3 847.7 182.7 866.3 274.2 894.2C365.7 922 457.3 959 548.8 953.5C640.3 948 731.7 900 823 880.5C914.3 861 1005.7 870 1097 879.3C1188.3 888.7 1279.7 898.3 1371.2 915C1462.7 931.7 1554.3 955.3 1645.8 939.7C1737.3 924 1828.7 869 1874.3 841.5L1920 814L1920 1081L1874.3 1081C1828.7 1081 1737.3 1081 1645.8 1081C1554.3 1081 1462.7 1081 1371.2 1081C1279.7 1081 1188.3 1081 1097 1081C1005.7 1081 914.3 1081 823 1081C731.7 1081 640.3 1081 548.8 1081C457.3 1081 365.7 1081 274.2 1081C182.7 1081 91.3 1081 45.7 1081L0 1081Z"
        fill="#006494"></path>
    <path
        d="M0 1017L45.7 1001C91.3 985 182.7 953 274.2 943.5C365.7 934 457.3 947 548.8 961C640.3 975 731.7 990 823 984.7C914.3 979.3 1005.7 953.7 1097 947.7C1188.3 941.7 1279.7 955.3 1371.2 973C1462.7 990.7 1554.3 1012.3 1645.8 1014.2C1737.3 1016 1828.7 998 1874.3 989L1920 980L1920 1081L1874.3 1081C1828.7 1081 1737.3 1081 1645.8 1081C1554.3 1081 1462.7 1081 1371.2 1081C1279.7 1081 1188.3 1081 1097 1081C1005.7 1081 914.3 1081 823 1081C731.7 1081 640.3 1081 548.8 1081C457.3 1081 365.7 1081 274.2 1081C182.7 1081 91.3 1081 45.7 1081L0 1081Z"
        fill="#006da4"></path>
</svg>