<svg id="visual" viewBox="0 0 1000 500" width="1000" height="500" xmlns="http://www.w3.org/2000/svg" xmlns:xlink="http://www.w3.org/1999/xlink" version="1.1"><g stroke-width="1" stroke-linejoin="bevel"><path d="M493 238.2L464.4 233.2L462.4 270.8Z" fill="#297ea6" stroke="#297ea6"></path><path d="M462.4 270.8L482 291.8L493 238.2Z" fill="#081a28" stroke="#081a28"></path><path d="M482 291.8L536.6 282.8L493 238.2Z" fill="#246688" stroke="#246688"></path><path d="M464.4 233.2L406.9 231.2L462.4 270.8Z" fill="#112e42" stroke="#112e42"></path><path d="M462.4 270.8L422.4 322.3L482 291.8Z" fill="#112e42" stroke="#112e42"></path><path d="M406.9 231.2L402.9 290.8L462.4 270.8Z" fill="#1d4e6b" stroke="#1d4e6b"></path><path d="M422.4 322.3L478 338.3L482 291.8Z" fill="#0c2435" stroke="#0c2435"></path><path d="M482 291.8L478 338.3L536.6 282.8Z" fill="#19435d" stroke="#19435d"></path><path d="M536.6 282.8L549.6 208.2L493 238.2Z" fill="#297ea6" stroke="#297ea6"></path><path d="M489 143.7L447.4 157.7L464.4 233.2Z" fill="#205a7a" stroke="#205a7a"></path><path d="M464.4 233.2L447.4 157.7L406.9 231.2Z" fill="#1d4e6b" stroke="#1d4e6b"></path><path d="M402.9 290.8L422.4 322.3L462.4 270.8Z" fill="#205a7a" stroke="#205a7a"></path><path d="M489 143.7L464.4 233.2L493 238.2Z" fill="#112e42" stroke="#112e42"></path><path d="M549.6 208.2L489 143.7L493 238.2Z" fill="#297ea6" stroke="#297ea6"></path><path d="M312.3 254.8L385.9 318.3L402.9 290.8Z" fill="#0c2435" stroke="#0c2435"></path><path d="M402.9 290.8L385.9 318.3L422.4 322.3Z" fill="#277297" stroke="#277297"></path><path d="M422.4 322.3L441.4 369.9L478 338.3Z" fill="#00101c" stroke="#00101c"></path><path d="M434.4 106.1L397.9 167.7L447.4 157.7Z" fill="#112e42" stroke="#112e42"></path><path d="M447.4 157.7L397.9 167.7L406.9 231.2Z" fill="#112e42" stroke="#112e42"></path><path d="M406.9 231.2L341.3 229.2L402.9 290.8Z" fill="#277297" stroke="#277297"></path><path d="M411.9 387.9L441.4 369.9L422.4 322.3Z" fill="#297ea6" stroke="#297ea6"></path><path d="M589.1 348.3L598.1 256.8L536.6 282.8Z" fill="#297ea6" stroke="#297ea6"></path><path d="M536.6 282.8L598.1 256.8L549.6 208.2Z" fill="#205a7a" stroke="#205a7a"></path><path d="M549.6 208.2L551.6 148.7L489 143.7Z" fill="#15384f" stroke="#15384f"></path><path d="M549.6 353.3L536.6 282.8L478 338.3Z" fill="#15384f" stroke="#15384f"></path><path d="M500 411.9L549.6 353.3L478 338.3Z" fill="#112e42" stroke="#112e42"></path><path d="M598.1 256.8L601.1 245.2L549.6 208.2Z" fill="#00101c" stroke="#00101c"></path><path d="M617.1 187.7L551.6 148.7L549.6 208.2Z" fill="#277297" stroke="#277297"></path><path d="M397.9 167.7L341.3 229.2L406.9 231.2Z" fill="#19435d" stroke="#19435d"></path><path d="M570.6 410.9L589.1 348.3L549.6 353.3Z" fill="#112e42" stroke="#112e42"></path><path d="M549.6 353.3L589.1 348.3L536.6 282.8Z" fill="#1d4e6b" stroke="#1d4e6b"></path><path d="M598.1 256.8L671.7 254.8L601.1 245.2Z" fill="#0c2435" stroke="#0c2435"></path><path d="M385.9 318.3L411.9 387.9L422.4 322.3Z" fill="#081a28" stroke="#081a28"></path><path d="M441.4 369.9L500 411.9L478 338.3Z" fill="#297ea6" stroke="#297ea6"></path><path d="M325.3 374.9L411.9 387.9L385.9 318.3Z" fill="#15384f" stroke="#15384f"></path><path d="M485 95.1L434.4 106.1L489 143.7Z" fill="#15384f" stroke="#15384f"></path><path d="M489 143.7L434.4 106.1L447.4 157.7Z" fill="#00101c" stroke="#00101c"></path><path d="M397.9 167.7L338.3 174.7L341.3 229.2Z" fill="#246688" stroke="#246688"></path><path d="M671.7 254.8L617.1 187.7L601.1 245.2Z" fill="#246688" stroke="#246688"></path><path d="M601.1 245.2L617.1 187.7L549.6 208.2Z" fill="#19435d" stroke="#19435d"></path><path d="M546.6 105.1L489 143.7L551.6 148.7Z" fill="#1d4e6b" stroke="#1d4e6b"></path><path d="M546.6 105.1L485 95.1L489 143.7Z" fill="#246688" stroke="#246688"></path><path d="M379.9 101.1L338.3 174.7L397.9 167.7Z" fill="#1d4e6b" stroke="#1d4e6b"></path><path d="M483 432.4L500 411.9L441.4 369.9Z" fill="#277297" stroke="#277297"></path><path d="M279.8 215.2L312.3 254.8L341.3 229.2Z" fill="#0c2435" stroke="#0c2435"></path><path d="M341.3 229.2L312.3 254.8L402.9 290.8Z" fill="#205a7a" stroke="#205a7a"></path><path d="M605.1 123.1L546.6 105.1L551.6 148.7Z" fill="#19435d" stroke="#19435d"></path><path d="M312.3 254.8L320.3 320.3L385.9 318.3Z" fill="#277297" stroke="#277297"></path><path d="M371.9 74.6L379.9 101.1L434.4 106.1Z" fill="#1d4e6b" stroke="#1d4e6b"></path><path d="M434.4 106.1L379.9 101.1L397.9 167.7Z" fill="#15384f" stroke="#15384f"></path><path d="M411.9 387.9L483 432.4L441.4 369.9Z" fill="#19435d" stroke="#19435d"></path><path d="M500 411.9L570.6 410.9L549.6 353.3Z" fill="#0c2435" stroke="#0c2435"></path><path d="M507 60.6L451.4 72.6L485 95.1Z" fill="#15384f" stroke="#15384f"></path><path d="M485 95.1L451.4 72.6L434.4 106.1Z" fill="#081a28" stroke="#081a28"></path><path d="M617.1 187.7L605.1 123.1L551.6 148.7Z" fill="#297ea6" stroke="#297ea6"></path><path d="M546.6 105.1L507 60.6L485 95.1Z" fill="#297ea6" stroke="#297ea6"></path><path d="M556.6 463.4L570.6 410.9L500 411.9Z" fill="#081a28" stroke="#081a28"></path><path d="M325.3 374.9L405.9 426.4L411.9 387.9Z" fill="#00101c" stroke="#00101c"></path><path d="M411.9 387.9L405.9 426.4L483 432.4Z" fill="#15384f" stroke="#15384f"></path><path d="M263.8 316.3L325.3 374.9L320.3 320.3Z" fill="#15384f" stroke="#15384f"></path><path d="M320.3 320.3L325.3 374.9L385.9 318.3Z" fill="#297ea6" stroke="#297ea6"></path><path d="M676.7 384.9L657.7 320.3L589.1 348.3Z" fill="#112e42" stroke="#112e42"></path><path d="M589.1 348.3L657.7 320.3L598.1 256.8Z" fill="#246688" stroke="#246688"></path><path d="M617.1 187.7L675.7 142.7L605.1 123.1Z" fill="#1d4e6b" stroke="#1d4e6b"></path><path d="M569.6 76.6L507 60.6L546.6 105.1Z" fill="#0c2435" stroke="#0c2435"></path><path d="M657.7 320.3L671.7 254.8L598.1 256.8Z" fill="#19435d" stroke="#19435d"></path><path d="M278.8 168.7L279.8 215.2L338.3 174.7Z" fill="#277297" stroke="#277297"></path><path d="M338.3 174.7L279.8 215.2L341.3 229.2Z" fill="#19435d" stroke="#19435d"></path><path d="M312.3 254.8L277.8 281.8L320.3 320.3Z" fill="#1d4e6b" stroke="#1d4e6b"></path><path d="M605.1 123.1L569.6 76.6L546.6 105.1Z" fill="#0c2435" stroke="#0c2435"></path><path d="M279.8 215.2L277.8 281.8L312.3 254.8Z" fill="#0c2435" stroke="#0c2435"></path><path d="M451.4 72.6L371.9 74.6L434.4 106.1Z" fill="#0c2435" stroke="#0c2435"></path><path d="M379.9 101.1L313.3 118.1L338.3 174.7Z" fill="#297ea6" stroke="#297ea6"></path><path d="M373.9 0L371.9 74.6L451.4 72.6Z" fill="#15384f" stroke="#15384f"></path><path d="M390.9 500L424.4 452.4L405.9 426.4Z" fill="#277297" stroke="#277297"></path><path d="M405.9 426.4L424.4 452.4L483 432.4Z" fill="#297ea6" stroke="#297ea6"></path><path d="M618.1 425.4L623.1 408.9L570.6 410.9Z" fill="#15384f" stroke="#15384f"></path><path d="M371.9 74.6L313.3 118.1L379.9 101.1Z" fill="#0c2435" stroke="#0c2435"></path><path d="M716.2 214.2L685.7 228.2L721.2 259.8Z" fill="#277297" stroke="#277297"></path><path d="M671.7 254.8L685.7 228.2L617.1 187.7Z" fill="#19435d" stroke="#19435d"></path><path d="M649.7 51.6L608.1 32.6L569.6 76.6Z" fill="#277297" stroke="#277297"></path><path d="M295.8 123.1L278.8 168.7L338.3 174.7Z" fill="#0c2435" stroke="#0c2435"></path><path d="M227.2 332.3L263.8 316.3L215.2 291.8Z" fill="#1d4e6b" stroke="#1d4e6b"></path><path d="M618.1 425.4L570.6 410.9L556.6 463.4Z" fill="#15384f" stroke="#15384f"></path><path d="M570.6 410.9L623.1 408.9L589.1 348.3Z" fill="#00101c" stroke="#00101c"></path><path d="M240.2 221.2L277.8 281.8L279.8 215.2Z" fill="#081a28" stroke="#081a28"></path><path d="M277.8 281.8L263.8 316.3L320.3 320.3Z" fill="#112e42" stroke="#112e42"></path><path d="M313.3 118.1L295.8 123.1L338.3 174.7Z" fill="#19435d" stroke="#19435d"></path><path d="M285.8 76.6L295.8 123.1L313.3 118.1Z" fill="#00101c" stroke="#00101c"></path><path d="M556.6 463.4L500 411.9L483 432.4Z" fill="#00101c" stroke="#00101c"></path><path d="M623.1 408.9L676.7 384.9L589.1 348.3Z" fill="#205a7a" stroke="#205a7a"></path><path d="M514 500L556.6 463.4L483 432.4Z" fill="#1d4e6b" stroke="#1d4e6b"></path><path d="M685.7 228.2L675.7 142.7L617.1 187.7Z" fill="#205a7a" stroke="#205a7a"></path><path d="M232.2 181.7L279.8 215.2L278.8 168.7Z" fill="#297ea6" stroke="#297ea6"></path><path d="M232.2 181.7L240.2 221.2L279.8 215.2Z" fill="#00101c" stroke="#00101c"></path><path d="M719.2 157.7L675.7 122.1L675.7 142.7Z" fill="#205a7a" stroke="#205a7a"></path><path d="M675.7 142.7L675.7 122.1L605.1 123.1Z" fill="#112e42" stroke="#112e42"></path><path d="M655.7 451.4L676.7 384.9L623.1 408.9Z" fill="#205a7a" stroke="#205a7a"></path><path d="M721.2 259.8L685.7 228.2L671.7 254.8Z" fill="#205a7a" stroke="#205a7a"></path><path d="M721.2 259.8L671.7 254.8L657.7 320.3Z" fill="#205a7a" stroke="#205a7a"></path><path d="M685.7 228.2L716.2 214.2L675.7 142.7Z" fill="#112e42" stroke="#112e42"></path><path d="M263.8 316.3L276.8 395.9L325.3 374.9Z" fill="#277297" stroke="#277297"></path><path d="M325.3 374.9L322.3 459.4L405.9 426.4Z" fill="#15384f" stroke="#15384f"></path><path d="M227.2 332.3L276.8 395.9L263.8 316.3Z" fill="#246688" stroke="#246688"></path><path d="M726.2 355.3L721.2 259.8L657.7 320.3Z" fill="#19435d" stroke="#19435d"></path><path d="M390.9 500L460.4 500L424.4 452.4Z" fill="#1d4e6b" stroke="#1d4e6b"></path><path d="M424.4 452.4L460.4 500L483 432.4Z" fill="#246688" stroke="#246688"></path><path d="M460.4 500L514 500L483 432.4Z" fill="#246688" stroke="#246688"></path><path d="M556.6 463.4L611.1 500L618.1 425.4Z" fill="#297ea6" stroke="#297ea6"></path><path d="M618.1 425.4L655.7 451.4L623.1 408.9Z" fill="#0c2435" stroke="#0c2435"></path><path d="M500 0L461.4 0L507 60.6Z" fill="#297ea6" stroke="#297ea6"></path><path d="M507 60.6L461.4 0L451.4 72.6Z" fill="#00101c" stroke="#00101c"></path><path d="M371.9 74.6L285.8 76.6L313.3 118.1Z" fill="#19435d" stroke="#19435d"></path><path d="M500 0L507 60.6L546.6 0Z" fill="#15384f" stroke="#15384f"></path><path d="M295.8 123.1L232.2 181.7L278.8 168.7Z" fill="#15384f" stroke="#15384f"></path><path d="M546.6 0L507 60.6L569.6 76.6Z" fill="#0c2435" stroke="#0c2435"></path><path d="M649.7 51.6L569.6 76.6L605.1 123.1Z" fill="#297ea6" stroke="#297ea6"></path><path d="M276.8 395.9L322.3 459.4L325.3 374.9Z" fill="#00101c" stroke="#00101c"></path><path d="M314.3 31.6L285.8 76.6L371.9 74.6Z" fill="#19435d" stroke="#19435d"></path><path d="M295.8 123.1L198.2 95.1L232.2 181.7Z" fill="#246688" stroke="#246688"></path><path d="M514 500L558.6 500L556.6 463.4Z" fill="#277297" stroke="#277297"></path><path d="M215.2 291.8L277.8 281.8L240.2 221.2Z" fill="#19435d" stroke="#19435d"></path><path d="M215.2 291.8L263.8 316.3L277.8 281.8Z" fill="#246688" stroke="#246688"></path><path d="M276.8 395.9L268.8 441.4L322.3 459.4Z" fill="#246688" stroke="#246688"></path><path d="M761.8 183.7L719.2 157.7L716.2 214.2Z" fill="#246688" stroke="#246688"></path><path d="M716.2 214.2L719.2 157.7L675.7 142.7Z" fill="#15384f" stroke="#15384f"></path><path d="M675.7 122.1L649.7 51.6L605.1 123.1Z" fill="#1d4e6b" stroke="#1d4e6b"></path><path d="M322.3 459.4L390.9 500L405.9 426.4Z" fill="#205a7a" stroke="#205a7a"></path><path d="M608.1 32.6L546.6 0L569.6 76.6Z" fill="#297ea6" stroke="#297ea6"></path><path d="M183.7 295.8L215.2 291.8L158.7 238.2Z" fill="#277297" stroke="#277297"></path><path d="M739.2 64.6L649.7 51.6L675.7 122.1Z" fill="#081a28" stroke="#081a28"></path><path d="M608.1 32.6L632.1 0L546.6 0Z" fill="#246688" stroke="#246688"></path><path d="M611.1 500L655.7 451.4L618.1 425.4Z" fill="#081a28" stroke="#081a28"></path><path d="M676.7 384.9L726.2 355.3L657.7 320.3Z" fill="#1d4e6b" stroke="#1d4e6b"></path><path d="M718.2 421.4L707.2 389.9L676.7 384.9Z" fill="#15384f" stroke="#15384f"></path><path d="M707.2 389.9L726.2 355.3L676.7 384.9Z" fill="#0c2435" stroke="#0c2435"></path><path d="M781.8 253.8L761.8 183.7L716.2 214.2Z" fill="#277297" stroke="#277297"></path><path d="M461.4 0L373.9 0L451.4 72.6Z" fill="#112e42" stroke="#112e42"></path><path d="M373.9 0L314.3 31.6L371.9 74.6Z" fill="#297ea6" stroke="#297ea6"></path><path d="M240.2 447.4L268.8 441.4L276.8 395.9Z" fill="#277297" stroke="#277297"></path><path d="M322.3 459.4L317.3 500L390.9 500Z" fill="#297ea6" stroke="#297ea6"></path><path d="M558.6 500L611.1 500L556.6 463.4Z" fill="#19435d" stroke="#19435d"></path><path d="M227.2 332.3L209.2 372.9L276.8 395.9Z" fill="#112e42" stroke="#112e42"></path><path d="M155.7 310.3L209.2 372.9L227.2 332.3Z" fill="#081a28" stroke="#081a28"></path><path d="M255.8 500L317.3 500L268.8 441.4Z" fill="#00101c" stroke="#00101c"></path><path d="M268.8 441.4L317.3 500L322.3 459.4Z" fill="#205a7a" stroke="#205a7a"></path><path d="M781.8 253.8L716.2 214.2L721.2 259.8Z" fill="#19435d" stroke="#19435d"></path><path d="M719.2 157.7L736.2 114.1L675.7 122.1Z" fill="#081a28" stroke="#081a28"></path><path d="M763.8 121.1L736.2 114.1L719.2 157.7Z" fill="#19435d" stroke="#19435d"></path><path d="M158.7 238.2L215.2 291.8L240.2 221.2Z" fill="#205a7a" stroke="#205a7a"></path><path d="M215.2 291.8L183.7 295.8L227.2 332.3Z" fill="#081a28" stroke="#081a28"></path><path d="M707.2 389.9L756.8 398.9L726.2 355.3Z" fill="#15384f" stroke="#15384f"></path><path d="M726.2 355.3L761.8 334.3L721.2 259.8Z" fill="#081a28" stroke="#081a28"></path><path d="M655.7 451.4L718.2 421.4L676.7 384.9Z" fill="#19435d" stroke="#19435d"></path><path d="M703.2 500L718.2 421.4L655.7 451.4Z" fill="#0c2435" stroke="#0c2435"></path><path d="M676.7 0L632.1 0L649.7 51.6Z" fill="#19435d" stroke="#19435d"></path><path d="M649.7 51.6L632.1 0L608.1 32.6Z" fill="#19435d" stroke="#19435d"></path><path d="M756.8 398.9L761.8 334.3L726.2 355.3Z" fill="#246688" stroke="#246688"></path><path d="M373.9 0L309.3 0L314.3 31.6Z" fill="#205a7a" stroke="#205a7a"></path><path d="M314.3 31.6L262.8 0L285.8 76.6Z" fill="#112e42" stroke="#112e42"></path><path d="M198.2 95.1L167.7 189.7L232.2 181.7Z" fill="#246688" stroke="#246688"></path><path d="M232.2 181.7L167.7 189.7L240.2 221.2Z" fill="#0c2435" stroke="#0c2435"></path><path d="M209.2 372.9L240.2 447.4L276.8 395.9Z" fill="#246688" stroke="#246688"></path><path d="M761.8 334.3L781.8 253.8L721.2 259.8Z" fill="#246688" stroke="#246688"></path><path d="M611.1 500L667.7 500L655.7 451.4Z" fill="#112e42" stroke="#112e42"></path><path d="M198.2 95.1L295.8 123.1L285.8 76.6Z" fill="#00101c" stroke="#00101c"></path><path d="M761.8 183.7L763.8 121.1L719.2 157.7Z" fill="#112e42" stroke="#112e42"></path><path d="M739.2 64.6L676.7 0L649.7 51.6Z" fill="#112e42" stroke="#112e42"></path><path d="M841.3 183.7L763.8 121.1L761.8 183.7Z" fill="#277297" stroke="#277297"></path><path d="M775.8 440.4L756.8 398.9L718.2 421.4Z" fill="#205a7a" stroke="#205a7a"></path><path d="M718.2 421.4L756.8 398.9L707.2 389.9Z" fill="#00101c" stroke="#00101c"></path><path d="M761.8 334.3L835.3 277.8L781.8 253.8Z" fill="#15384f" stroke="#15384f"></path><path d="M167.7 189.7L158.7 238.2L240.2 221.2Z" fill="#205a7a" stroke="#205a7a"></path><path d="M183.7 295.8L155.7 310.3L227.2 332.3Z" fill="#297ea6" stroke="#297ea6"></path><path d="M214.2 39.6L198.2 95.1L285.8 76.6Z" fill="#205a7a" stroke="#205a7a"></path><path d="M841.3 239.2L794.8 206.2L781.8 253.8Z" fill="#205a7a" stroke="#205a7a"></path><path d="M781.8 253.8L794.8 206.2L761.8 183.7Z" fill="#1d4e6b" stroke="#1d4e6b"></path><path d="M739.2 64.6L675.7 122.1L736.2 114.1Z" fill="#246688" stroke="#246688"></path><path d="M763.8 121.1L739.2 64.6L736.2 114.1Z" fill="#297ea6" stroke="#297ea6"></path><path d="M158.7 238.2L155.7 310.3L183.7 295.8Z" fill="#112e42" stroke="#112e42"></path><path d="M182.7 500L243.2 500L240.2 447.4Z" fill="#19435d" stroke="#19435d"></path><path d="M309.3 0L262.8 0L314.3 31.6Z" fill="#297ea6" stroke="#297ea6"></path><path d="M243.2 500L255.8 500L240.2 447.4Z" fill="#081a28" stroke="#081a28"></path><path d="M240.2 447.4L255.8 500L268.8 441.4Z" fill="#205a7a" stroke="#205a7a"></path><path d="M667.7 500L703.2 500L655.7 451.4Z" fill="#246688" stroke="#246688"></path><path d="M262.8 0L214.2 39.6L285.8 76.6Z" fill="#205a7a" stroke="#205a7a"></path><path d="M198.2 95.1L151.7 90.1L167.7 189.7Z" fill="#00101c" stroke="#00101c"></path><path d="M160.7 395.9L240.2 447.4L209.2 372.9Z" fill="#00101c" stroke="#00101c"></path><path d="M155.7 310.3L160.7 395.9L209.2 372.9Z" fill="#0c2435" stroke="#0c2435"></path><path d="M840.3 116.1L766.8 59.6L763.8 121.1Z" fill="#277297" stroke="#277297"></path><path d="M763.8 121.1L766.8 59.6L739.2 64.6Z" fill="#15384f" stroke="#15384f"></path><path d="M739.2 64.6L722.2 0L676.7 0Z" fill="#205a7a" stroke="#205a7a"></path><path d="M766.8 59.6L722.2 0L739.2 64.6Z" fill="#0c2435" stroke="#0c2435"></path><path d="M262.8 0L229.2 0L214.2 39.6Z" fill="#0c2435" stroke="#0c2435"></path><path d="M763.8 500L775.8 440.4L718.2 421.4Z" fill="#15384f" stroke="#15384f"></path><path d="M846.3 336.3L835.3 277.8L761.8 334.3Z" fill="#19435d" stroke="#19435d"></path><path d="M846.3 336.3L761.8 334.3L756.8 398.9Z" fill="#246688" stroke="#246688"></path><path d="M794.8 206.2L841.3 183.7L761.8 183.7Z" fill="#15384f" stroke="#15384f"></path><path d="M179.7 38.6L198.2 95.1L214.2 39.6Z" fill="#246688" stroke="#246688"></path><path d="M179.7 38.6L151.7 90.1L198.2 95.1Z" fill="#205a7a" stroke="#205a7a"></path><path d="M91.1 212.2L110.1 285.8L158.7 238.2Z" fill="#297ea6" stroke="#297ea6"></path><path d="M158.7 238.2L110.1 285.8L155.7 310.3Z" fill="#205a7a" stroke="#205a7a"></path><path d="M229.2 0L179.7 38.6L214.2 39.6Z" fill="#112e42" stroke="#112e42"></path><path d="M835.3 277.8L841.3 239.2L781.8 253.8Z" fill="#19435d" stroke="#19435d"></path><path d="M91.1 212.2L158.7 238.2L167.7 189.7Z" fill="#0c2435" stroke="#0c2435"></path><path d="M155.7 310.3L103.1 321.3L160.7 395.9Z" fill="#112e42" stroke="#112e42"></path><path d="M841.3 239.2L841.3 183.7L794.8 206.2Z" fill="#112e42" stroke="#112e42"></path><path d="M133.1 63.6L131.1 100.1L151.7 90.1Z" fill="#205a7a" stroke="#205a7a"></path><path d="M151.7 90.1L131.1 100.1L167.7 189.7Z" fill="#15384f" stroke="#15384f"></path><path d="M75.6 292.8L103.1 321.3L110.1 285.8Z" fill="#112e42" stroke="#112e42"></path><path d="M110.1 285.8L103.1 321.3L155.7 310.3Z" fill="#1d4e6b" stroke="#1d4e6b"></path><path d="M703.2 500L763.8 500L718.2 421.4Z" fill="#112e42" stroke="#112e42"></path><path d="M856.3 407.9L846.3 336.3L756.8 398.9Z" fill="#246688" stroke="#246688"></path><path d="M856.3 407.9L756.8 398.9L775.8 440.4Z" fill="#246688" stroke="#246688"></path><path d="M907.9 296.8L895.9 222.2L841.3 239.2Z" fill="#277297" stroke="#277297"></path><path d="M841.3 239.2L895.9 222.2L841.3 183.7Z" fill="#205a7a" stroke="#205a7a"></path><path d="M146.7 456.4L240.2 447.4L160.7 395.9Z" fill="#19435d" stroke="#19435d"></path><path d="M146.7 456.4L182.7 500L240.2 447.4Z" fill="#205a7a" stroke="#205a7a"></path><path d="M99.1 147.7L91.1 212.2L167.7 189.7Z" fill="#0c2435" stroke="#0c2435"></path><path d="M97.1 449.4L146.7 456.4L160.7 395.9Z" fill="#081a28" stroke="#081a28"></path><path d="M822.3 39.6L771.8 0L766.8 59.6Z" fill="#00101c" stroke="#00101c"></path><path d="M766.8 59.6L771.8 0L722.2 0Z" fill="#246688" stroke="#246688"></path><path d="M887.9 124.1L840.3 116.1L841.3 183.7Z" fill="#205a7a" stroke="#205a7a"></path><path d="M841.3 183.7L840.3 116.1L763.8 121.1Z" fill="#19435d" stroke="#19435d"></path><path d="M131.1 100.1L99.1 147.7L167.7 189.7Z" fill="#0c2435" stroke="#0c2435"></path><path d="M179.7 38.6L133.1 63.6L151.7 90.1Z" fill="#0c2435" stroke="#0c2435"></path><path d="M52.6 114.1L78.6 152.7L99.1 147.7Z" fill="#15384f" stroke="#15384f"></path><path d="M161.7 0L133.1 63.6L179.7 38.6Z" fill="#0c2435" stroke="#0c2435"></path><path d="M91.1 212.2L75.6 292.8L110.1 285.8Z" fill="#277297" stroke="#277297"></path><path d="M103.1 321.3L87.1 399.9L160.7 395.9Z" fill="#081a28" stroke="#081a28"></path><path d="M68.6 209.2L75.6 292.8L91.1 212.2Z" fill="#15384f" stroke="#15384f"></path><path d="M229.2 0L161.7 0L179.7 38.6Z" fill="#0c2435" stroke="#0c2435"></path><path d="M840.3 116.1L822.3 39.6L766.8 59.6Z" fill="#081a28" stroke="#081a28"></path><path d="M78.6 152.7L91.1 212.2L99.1 147.7Z" fill="#297ea6" stroke="#297ea6"></path><path d="M78.6 152.7L68.6 209.2L91.1 212.2Z" fill="#00101c" stroke="#00101c"></path><path d="M52.6 114.1L99.1 147.7L131.1 100.1Z" fill="#297ea6" stroke="#297ea6"></path><path d="M73.6 70.6L131.1 100.1L133.1 63.6Z" fill="#00101c" stroke="#00101c"></path><path d="M843.3 437.4L856.3 407.9L775.8 440.4Z" fill="#15384f" stroke="#15384f"></path><path d="M907.9 296.8L841.3 239.2L835.3 277.8Z" fill="#205a7a" stroke="#205a7a"></path><path d="M840.3 500L843.3 437.4L775.8 440.4Z" fill="#112e42" stroke="#112e42"></path><path d="M43.6 348.3L87.1 399.9L103.1 321.3Z" fill="#205a7a" stroke="#205a7a"></path><path d="M146.7 456.4L94.1 500L182.7 500Z" fill="#246688" stroke="#246688"></path><path d="M891.9 325.3L835.3 277.8L846.3 336.3Z" fill="#19435d" stroke="#19435d"></path><path d="M840.3 116.1L896.9 39.6L822.3 39.6Z" fill="#1d4e6b" stroke="#1d4e6b"></path><path d="M878.9 406.9L891.9 325.3L846.3 336.3Z" fill="#00101c" stroke="#00101c"></path><path d="M87.1 399.9L97.1 449.4L160.7 395.9Z" fill="#246688" stroke="#246688"></path><path d="M856.3 407.9L878.9 406.9L846.3 336.3Z" fill="#15384f" stroke="#15384f"></path><path d="M885.9 446.4L878.9 406.9L856.3 407.9Z" fill="#15384f" stroke="#15384f"></path><path d="M902.9 161.7L887.9 124.1L841.3 183.7Z" fill="#081a28" stroke="#081a28"></path><path d="M161.7 0L123.1 0L133.1 63.6Z" fill="#15384f" stroke="#15384f"></path><path d="M949.4 345.3L907.9 296.8L891.9 325.3Z" fill="#112e42" stroke="#112e42"></path><path d="M891.9 325.3L907.9 296.8L835.3 277.8Z" fill="#081a28" stroke="#081a28"></path><path d="M895.9 222.2L902.9 161.7L841.3 183.7Z" fill="#0c2435" stroke="#0c2435"></path><path d="M896.9 39.6L830.3 0L822.3 39.6Z" fill="#277297" stroke="#277297"></path><path d="M822.3 39.6L830.3 0L771.8 0Z" fill="#205a7a" stroke="#205a7a"></path><path d="M940.4 154.7L902.9 161.7L964.4 207.2Z" fill="#1d4e6b" stroke="#1d4e6b"></path><path d="M763.8 500L840.3 500L775.8 440.4Z" fill="#112e42" stroke="#112e42"></path><path d="M843.3 437.4L885.9 446.4L856.3 407.9Z" fill="#1d4e6b" stroke="#1d4e6b"></path><path d="M123.1 0L73.6 70.6L133.1 63.6Z" fill="#297ea6" stroke="#297ea6"></path><path d="M0 151.7L0 232.2L68.6 209.2Z" fill="#246688" stroke="#246688"></path><path d="M75.6 292.8L43.6 348.3L103.1 321.3Z" fill="#1d4e6b" stroke="#1d4e6b"></path><path d="M87.1 399.9L44.6 457.4L97.1 449.4Z" fill="#1d4e6b" stroke="#1d4e6b"></path><path d="M0 288.8L43.6 348.3L75.6 292.8Z" fill="#205a7a" stroke="#205a7a"></path><path d="M0 232.2L75.6 292.8L68.6 209.2Z" fill="#1d4e6b" stroke="#1d4e6b"></path><path d="M73.6 70.6L52.6 114.1L131.1 100.1Z" fill="#081a28" stroke="#081a28"></path><path d="M840.3 500L885.9 446.4L843.3 437.4Z" fill="#277297" stroke="#277297"></path><path d="M878.9 406.9L949.4 345.3L891.9 325.3Z" fill="#0c2435" stroke="#0c2435"></path><path d="M44.6 457.4L94.1 500L97.1 449.4Z" fill="#112e42" stroke="#112e42"></path><path d="M97.1 449.4L94.1 500L146.7 456.4Z" fill="#297ea6" stroke="#297ea6"></path><path d="M0 356.3L34.6 381.9L43.6 348.3Z" fill="#00101c" stroke="#00101c"></path><path d="M43.6 348.3L34.6 381.9L87.1 399.9Z" fill="#112e42" stroke="#112e42"></path><path d="M887.9 124.1L896.9 39.6L840.3 116.1Z" fill="#19435d" stroke="#19435d"></path><path d="M935.4 71.6L896.9 39.6L887.9 124.1Z" fill="#112e42" stroke="#112e42"></path><path d="M964.4 207.2L902.9 161.7L895.9 222.2Z" fill="#277297" stroke="#277297"></path><path d="M902.9 161.7L940.4 154.7L887.9 124.1Z" fill="#112e42" stroke="#112e42"></path><path d="M965.4 271.8L895.9 222.2L907.9 296.8Z" fill="#205a7a" stroke="#205a7a"></path><path d="M0 151.7L68.6 209.2L78.6 152.7Z" fill="#081a28" stroke="#081a28"></path><path d="M0 232.2L0 288.8L75.6 292.8Z" fill="#081a28" stroke="#081a28"></path><path d="M34.6 381.9L44.6 457.4L87.1 399.9Z" fill="#081a28" stroke="#081a28"></path><path d="M0 398.9L44.6 457.4L34.6 381.9Z" fill="#277297" stroke="#277297"></path><path d="M944.4 407.9L949.4 345.3L878.9 406.9Z" fill="#19435d" stroke="#19435d"></path><path d="M940.4 154.7L935.4 102.1L887.9 124.1Z" fill="#15384f" stroke="#15384f"></path><path d="M52.6 114.1L0 151.7L78.6 152.7Z" fill="#1d4e6b" stroke="#1d4e6b"></path><path d="M0 128.1L0 151.7L52.6 114.1Z" fill="#19435d" stroke="#19435d"></path><path d="M0 128.1L52.6 114.1L0 37.6Z" fill="#112e42" stroke="#112e42"></path><path d="M0 288.8L0 356.3L43.6 348.3Z" fill="#081a28" stroke="#081a28"></path><path d="M840.3 500L896.9 500L885.9 446.4Z" fill="#081a28" stroke="#081a28"></path><path d="M885.9 446.4L944.4 407.9L878.9 406.9Z" fill="#277297" stroke="#277297"></path><path d="M949.4 345.3L965.4 271.8L907.9 296.8Z" fill="#15384f" stroke="#15384f"></path><path d="M940.4 154.7L1000 144.7L935.4 102.1Z" fill="#112e42" stroke="#112e42"></path><path d="M965.4 271.8L964.4 207.2L895.9 222.2Z" fill="#0c2435" stroke="#0c2435"></path><path d="M0 37.6L52.6 114.1L73.6 70.6Z" fill="#112e42" stroke="#112e42"></path><path d="M1000 315.3L1000 266.8L965.4 271.8Z" fill="#19435d" stroke="#19435d"></path><path d="M955.4 444.4L944.4 407.9L885.9 446.4Z" fill="#19435d" stroke="#19435d"></path><path d="M123.1 0L51.6 0L73.6 70.6Z" fill="#00101c" stroke="#00101c"></path><path d="M1000 88.1L935.4 71.6L935.4 102.1Z" fill="#00101c" stroke="#00101c"></path><path d="M935.4 102.1L935.4 71.6L887.9 124.1Z" fill="#297ea6" stroke="#297ea6"></path><path d="M934.4 0L902.9 0L896.9 39.6Z" fill="#15384f" stroke="#15384f"></path><path d="M896.9 39.6L902.9 0L830.3 0Z" fill="#246688" stroke="#246688"></path><path d="M0 356.3L0 398.9L34.6 381.9Z" fill="#205a7a" stroke="#205a7a"></path><path d="M0 459.4L40.6 500L44.6 457.4Z" fill="#205a7a" stroke="#205a7a"></path><path d="M44.6 457.4L40.6 500L94.1 500Z" fill="#205a7a" stroke="#205a7a"></path><path d="M896.9 500L955.4 444.4L885.9 446.4Z" fill="#297ea6" stroke="#297ea6"></path><path d="M1000 376.9L1000 315.3L949.4 345.3Z" fill="#0c2435" stroke="#0c2435"></path><path d="M0 398.9L0 459.4L44.6 457.4Z" fill="#112e42" stroke="#112e42"></path><path d="M51.6 0L0 37.6L73.6 70.6Z" fill="#0c2435" stroke="#0c2435"></path><path d="M935.4 71.6L934.4 0L896.9 39.6Z" fill="#19435d" stroke="#19435d"></path><path d="M1000 48.6L934.4 0L935.4 71.6Z" fill="#00101c" stroke="#00101c"></path><path d="M1000 315.3L965.4 271.8L949.4 345.3Z" fill="#297ea6" stroke="#297ea6"></path><path d="M965.4 271.8L1000 227.2L964.4 207.2Z" fill="#112e42" stroke="#112e42"></path><path d="M964.4 207.2L1000 144.7L940.4 154.7Z" fill="#205a7a" stroke="#205a7a"></path><path d="M1000 266.8L1000 227.2L965.4 271.8Z" fill="#246688" stroke="#246688"></path><path d="M1000 376.9L949.4 345.3L944.4 407.9Z" fill="#277297" stroke="#277297"></path><path d="M1000 227.2L1000 144.7L964.4 207.2Z" fill="#081a28" stroke="#081a28"></path><path d="M0 459.4L0 500L40.6 500Z" fill="#1d4e6b" stroke="#1d4e6b"></path><path d="M51.6 0L0 0L0 37.6Z" fill="#205a7a" stroke="#205a7a"></path><path d="M1000 444.4L1000 376.9L944.4 407.9Z" fill="#246688" stroke="#246688"></path><path d="M896.9 500L965.4 500L955.4 444.4Z" fill="#00101c" stroke="#00101c"></path><path d="M955.4 444.4L1000 444.4L944.4 407.9Z" fill="#297ea6" stroke="#297ea6"></path><path d="M1000 144.7L1000 88.1L935.4 102.1Z" fill="#277297" stroke="#277297"></path><path d="M965.4 500L1000 444.4L955.4 444.4Z" fill="#19435d" stroke="#19435d"></path><path d="M1000 88.1L1000 48.6L935.4 71.6Z" fill="#246688" stroke="#246688"></path><path d="M965.4 500L1000 500L1000 444.4Z" fill="#112e42" stroke="#112e42"></path><path d="M1000 48.6L1000 0L934.4 0Z" fill="#205a7a" stroke="#205a7a"></path></g></svg>